<svg xmlns="http://www.w3.org/2000/svg" viewBox="0 0 48 24" width="48" height="24">
	<style>
		tspan { white-space:pre }
		.shp0 { fill: #31332e } 
	</style>
	<g id="Group 1">
		<g id="Toolbar">
			<g id="Shape">
				<path id="Rectangle " class="shp0" d="M2.62 18.99L45.38 18.99C46.28 18.99 47 19.71 47 20.6L47 21.38C47 22.27 46.28 23 45.38 23L2.62 23C1.72 23 1 22.27 1 21.38L1 20.6C1 19.71 1.72 18.99 2.62 18.99Z" />
				<path id="Rectangle " class="shp0" d="M2.62 10.99L45.38 10.99C46.28 10.99 47 11.72 47 12.61L47 13.39C47 14.28 46.28 15.01 45.38 15.01L2.62 15.01C1.72 15.01 1 14.28 1 13.39L1 12.61C1 11.72 1.72 10.99 2.62 10.99Z" />
				<path id="Rectangle " class="shp0" d="M2.62 2L45.38 2C46.28 2 47 2.72 47 3.62L47 4.4C47 5.29 46.28 6.01 45.38 6.01L2.62 6.01C1.72 6.01 1 5.29 1 4.4L1 3.62C1 2.72 1.72 2 2.62 2Z" />
			</g>
		</g>
	</g>
</svg>